# xmcd
#
# Track frame offsets: 
#        150
#        15571
#        31672
#        66586
#
# Disc length: 1303 seconds
#
# Revision: 0
# Processed by: cddbd v1.5.2PL0 Copyright (c) Steve Scherf et al.
# Submitted via: ExactAudioCopy v0.99pb5
#
DISCID=2a051504
DTITLE=Pussy 2000 - It's Gonna Be Alright (Promo)
DYEAR=2001
DGENRE=House
TTITLE0=It's Gonna Be Alright (Radio Edit)
TTITLE1=It's Gonna Be Alright (Vide Edit)
TTITLE2=It's Gonna Be Alright (Phunk Investigation Club Invest Mix)
TTITLE3=It's Gonna Be Alright (Original 2001 Mix)
EXTD=
EXTT0=
EXTT1=
EXTT2=
EXTT3=
PLAYORDER=
